<?xml version="1.0" standalone="no"?>
<!DOCTYPE svg PUBLIC "-//W3C//DTD SVG 20010904//EN"
 "http://www.w3.org/TR/2001/REC-SVG-20010904/DTD/svg10.dtd">
<svg version="1.0" xmlns="http://www.w3.org/2000/svg"
 width="395.000000pt" height="395.000000pt" viewBox="0 0 395.000000 395.000000"
 preserveAspectRatio="xMidYMid meet">
<metadata>
Created by potrace 1.14, written by Peter Selinger 2001-2017
</metadata>
<g transform="translate(0.000000,395.000000) scale(0.100000,-0.100000)"
fill="#000000" stroke="none">
<path d="M1098 3371 c-117 -7 -129 -9 -162 -35 -60 -45 -87 -121 -68 -190 6
-20 119 -220 251 -444 133 -225 241 -412 240 -418 0 -5 -50 -34 -111 -63 -223
-110 -377 -260 -394 -382 -5 -34 0 -59 22 -114 25 -65 28 -84 33 -255 5 -159
9 -190 26 -217 18 -30 63 -55 116 -65 13 -2 -7 -41 -83 -168 -117 -196 -143
-244 -152 -287 -10 -44 9 -107 45 -148 52 -59 92 -65 410 -65 159 0 299 5 328
11 72 15 105 54 193 225 43 82 110 210 149 284 39 74 77 145 83 158 11 22 24
1 172 -279 173 -329 201 -368 277 -387 61 -16 607 -16 678 -1 101 22 160 119
133 219 -6 25 -62 128 -124 229 -61 101 -114 190 -117 198 -3 8 3 13 17 13 38
0 89 31 112 69 22 34 23 45 20 178 -2 154 5 202 45 303 23 58 24 69 14 113
-12 53 -36 93 -97 159 -83 90 -233 190 -366 244 -38 15 -68 31 -68 35 0 8 88
159 340 584 75 127 141 249 147 272 23 92 -31 190 -120 214 -26 7 -148 12
-327 13 -316 1 -349 -4 -402 -57 -17 -18 -92 -150 -169 -302 -76 -148 -142
-271 -146 -272 -4 -1 -73 121 -152 273 -79 151 -158 288 -175 304 -16 17 -46
35 -65 41 -46 13 -387 19 -553 10z m553 -115 c13 -13 104 -179 203 -368 98
-188 182 -347 186 -351 4 -4 87 151 185 345 98 193 189 362 201 375 23 23 23
23 329 23 261 0 309 -2 330 -16 31 -20 47 -67 35 -100 -9 -23 -127 -224 -403
-686 -55 -93 -102 -168 -106 -168 -38 1 -23 32 218 439 144 241 251 432 251
446 0 14 -8 29 -19 35 -30 16 -596 14 -609 -3 -6 -6 -97 -183 -203 -392 -105
-209 -195 -384 -199 -388 -7 -8 -119 199 -330 608 -46 88 -90 166 -98 173 -12
9 -89 12 -306 12 -255 0 -292 -2 -308 -17 -10 -9 -18 -22 -18 -29 0 -7 113
-203 251 -435 138 -233 253 -428 256 -435 2 -6 -4 -14 -15 -16 -16 -4 -33 18
-97 126 -376 631 -435 735 -435 760 0 17 11 39 29 57 l29 29 310 0 309 0 24
-24z m-301 -81 c8 -9 8 -15 2 -15 -6 0 -13 6 -15 13 -4 9 -8 8 -16 -3 -6 -8
-11 -10 -11 -4 0 26 22 31 40 9z m40 0 c7 -8 9 -15 6 -15 -4 0 -14 7 -22 15
-9 8 -11 15 -6 15 5 0 15 -7 22 -15z m35 4 c11 -16 1 -19 -13 -3 -7 8 -8 14
-3 14 5 0 13 -5 16 -11z m40 0 c11 -16 1 -19 -13 -3 -7 8 -8 14 -3 14 5 0 13
-5 16 -11z m40 0 c11 -16 1 -19 -13 -3 -7 8 -8 14 -3 14 5 0 13 -5 16 -11z
m40 0 c11 -16 1 -19 -13 -3 -7 8 -8 14 -3 14 5 0 13 -5 16 -11z m955 1 c0 -5
-5 -10 -11 -10 -5 0 -7 5 -4 10 3 6 8 10 11 10 2 0 4 -4 4 -10z m120 -1 c0 -6
-9 -9 -20 -6 -11 3 -23 1 -26 -5 -4 -6 -9 -5 -14 3 -7 10 -12 10 -23 1 -7 -7
-17 -9 -20 -5 -17 16 -3 23 48 23 34 0 55 -4 55 -11z m40 1 c0 -5 -4 -10 -9
-10 -6 0 -13 5 -16 10 -3 6 1 10 9 10 9 0 16 -4 16 -10z m40 0 c0 -5 -4 -10
-9 -10 -6 0 -13 5 -16 10 -3 6 1 10 9 10 9 0 16 -4 16 -10z m286 3 c-4 -4 -24
-8 -45 -9 -20 0 -42 -4 -48 -7 -7 -4 -15 -3 -18 3 -5 8 -11 8 -20 0 -10 -8
-15 -8 -20 0 -5 8 -10 8 -20 0 -8 -6 -16 -7 -19 -2 -3 5 -21 8 -41 6 -19 -1
-37 2 -41 7 -3 5 53 9 137 9 78 0 139 -3 135 -7z m-672 -868 c349 -41 602
-144 771 -315 43 -43 56 -63 48 -71 -8 -8 -13 -7 -18 2 -6 8 -4 10 6 4 12 -8
12 -6 0 8 -18 23 -20 22 -15 -10 5 -27 5 -27 -15 -9 -12 11 -21 17 -21 14 0
-2 12 -15 27 -29 14 -13 23 -18 19 -11 -10 18 -1 15 15 -5 10 -11 10 -14 2 -9
-8 4 -13 2 -13 -5 0 -7 -9 -5 -22 7 l-23 19 19 -22 c10 -13 22 -20 27 -18 4 3
11 0 15 -6 4 -8 3 -9 -4 -5 -16 10 -15 -6 1 -24 10 -12 9 -12 -4 -2 -9 6 -20
8 -24 4 -5 -4 -5 -2 -1 5 3 6 2 14 -3 18 -14 8 -5 -33 11 -53 10 -12 10 -14 1
-8 -16 9 -17 -6 -2 -21 9 -9 7 -11 -7 -8 -11 1 -18 8 -16 14 2 9 -3 9 -17 2
-10 -6 -22 -7 -27 -3 -5 4 -2 -1 5 -10 7 -10 16 -16 19 -15 4 1 8 -2 9 -8 1
-5 -4 -9 -12 -9 -9 1 -12 -6 -9 -20 3 -11 6 -26 8 -33 1 -7 6 -16 11 -20 4 -4
5 -2 0 6 -5 8 -4 12 1 8 11 -6 11 -73 1 -83 -4 -4 -17 1 -29 12 -21 17 -21 18
-8 1 18 -24 24 -61 8 -51 -6 4 -8 3 -4 -4 3 -6 15 -9 26 -7 12 2 18 0 15 -6
-4 -5 -11 -7 -16 -4 -15 10 -11 -5 10 -33 71 -100 66 -230 -9 -247 -37 -8 -79
3 -59 16 11 7 11 9 -3 9 -9 0 -19 4 -22 8 -3 5 9 7 27 5 31 -3 31 -3 -7 12
-54 21 -55 24 -4 19 42 -4 43 -4 10 7 -27 8 -31 13 -22 24 15 19 4 35 -23 34
-21 -1 -20 -2 3 -10 23 -7 24 -8 2 -6 -12 1 -23 5 -22 10 0 4 -7 21 -16 38 -8
17 -11 28 -5 25 6 -4 11 -3 11 3 0 6 8 8 18 4 14 -5 13 -2 -4 17 -12 12 -46
28 -75 35 l-54 13 40 1 c51 1 113 -34 138 -77 15 -26 17 -38 8 -62 -8 -25 -7
-30 5 -30 8 0 12 5 9 10 -3 6 -2 10 3 10 5 0 12 9 15 20 3 11 0 20 -5 20 -6 0
-5 6 2 15 9 11 9 15 1 15 -7 0 -9 5 -6 10 3 6 2 10 -2 10 -5 0 -14 9 -21 20
-10 17 -10 20 2 20 28 0 66 -44 68 -77 1 -18 5 -33 8 -33 9 0 6 -32 -5 -49 -5
-10 -4 -12 4 -7 8 5 10 -1 7 -21 -5 -27 -5 -27 10 -8 11 14 14 33 10 63 -17
132 -114 230 -327 332 -111 53 -188 74 -339 95 -76 10 -86 13 -50 15 45 3 45
3 -15 10 -129 17 -383 22 -540 11 -182 -13 -319 -33 -180 -26 79 5 78 4 -40
-15 -137 -22 -161 -23 -90 -5 28 7 41 13 30 14 -27 1 -125 -27 -100 -28 11 -1
-3 -10 -32 -20 -91 -33 -237 -111 -297 -157 -60 -48 -113 -114 -133 -167 -16
-44 -16 -109 0 -132 13 -17 14 -17 12 1 0 11 -4 25 -9 32 -4 6 -3 12 3 12 5 0
8 12 5 26 -3 19 -1 24 8 18 10 -6 9 -3 -1 9 -8 11 -9 17 -3 17 6 0 9 7 6 15
-6 15 46 75 65 75 15 0 14 -16 -4 -33 -8 -8 -11 -17 -8 -21 4 -3 2 -6 -4 -6
-6 0 -8 -14 -6 -32 3 -18 5 -39 6 -46 0 -9 9 -12 24 -9 37 7 38 -11 1 -22
l-33 -9 30 -2 30 -1 -30 -14 c-30 -13 -30 -13 -5 -15 23 -1 23 -2 5 -10 -11
-5 -14 -9 -7 -9 7 -1 10 -5 7 -11 -12 -19 -65 -11 -90 15 -35 34 -35 116 0
185 14 27 24 55 23 62 -2 7 2 12 9 11 6 -1 17 5 25 15 12 15 11 16 -4 3 -13
-9 -18 -10 -18 -2 0 7 -5 9 -10 6 -16 -10 -11 1 7 16 15 12 16 12 8 -1 -4 -8
-4 -12 0 -7 9 7 12 20 19 63 3 22 -15 27 -31 9 -4 -4 -2 -5 5 -1 18 11 15 0
-5 -15 -10 -7 -15 -10 -11 -5 4 5 3 17 -2 27 -7 12 -6 20 2 25 7 4 8 3 4 -4
-11 -18 0 -14 15 5 10 11 10 14 2 9 -8 -4 -13 -2 -13 5 0 8 -5 7 -17 -2 -16
-13 -17 -12 -4 3 7 10 17 16 21 13 4 -3 14 3 21 13 13 15 12 16 -3 3 -13 -9
-18 -10 -18 -2 0 7 -5 9 -10 6 -16 -10 -11 1 7 16 15 12 16 12 8 -1 -8 -13 -7
-13 8 -1 10 8 15 16 12 19 -3 3 1 12 8 20 11 14 9 14 -13 0 -33 -20 -56 -17
-52 6 2 13 -1 16 -10 10 -10 -6 -10 -5 0 9 13 16 8 42 -7 33 -3 -3 -7 3 -7 13
0 10 6 18 13 18 7 0 12 -5 11 -11 -2 -7 1 -11 7 -11 5 0 8 5 6 10 -7 18 -1 51
14 75 5 9 1 8 -13 -4 -12 -10 -20 -21 -19 -25 1 -3 -2 -7 -7 -9 -5 -1 -10 14
-12 33 -3 46 22 75 128 155 177 134 409 215 708 249 124 14 367 12 504 -4z
m-201 -492 c-35 -2 -91 -2 -125 0 -35 2 -7 3 62 3 69 0 97 -1 63 -3z m-275
-10 c-16 -2 -40 -2 -55 0 -16 2 -3 4 27 4 30 0 43 -2 28 -4z m490 0 c-15 -2
-42 -2 -60 0 -18 2 -6 4 27 4 33 0 48 -2 33 -4z m-468 -104 c0 -5 -7 -9 -15
-9 -9 0 -12 6 -9 15 6 15 24 11 24 -6z m-320 6 c0 -5 -14 -29 -57 -100 -239
-396 -323 -539 -323 -547 0 -6 10 -3 22 8 l21 19 -18 -28 -17 -27 37 -16 c42
-17 43 -30 1 -14 -37 14 -46 6 -48 -43 l-1 -42 -6 44 c-3 25 -11 46 -16 48 -9
3 -169 -252 -187 -298 -4 -11 0 -27 12 -41 18 -23 20 -23 302 -26 160 -2 295
1 309 6 19 8 50 59 132 216 l107 205 0 83 c0 46 -3 93 -6 106 -7 23 -7 23 -42
-10 l-35 -33 28 38 c15 21 25 40 22 43 -3 3 -44 -2 -92 -11 -47 -10 -88 -15
-91 -13 -2 3 36 18 86 34 49 16 90 31 90 35 0 3 -10 11 -22 18 -22 11 -21 11
5 6 l29 -6 -53 98 c-59 111 -56 110 27 -1 l59 -80 6 35 6 34 2 -32 c0 -18 4
-33 7 -33 3 0 37 33 76 73 l70 72 -56 -85 c-49 -74 -54 -86 -38 -92 9 -3 11
-7 5 -7 -21 -1 -15 -17 12 -29 24 -11 26 -9 76 89 27 56 53 99 56 96 3 -4 103
-192 223 -419 155 -296 224 -417 241 -425 17 -9 103 -13 314 -13 309 0 337 4
343 48 2 16 -63 131 -206 365 -444 726 -406 659 -376 655 26 -3 124 -156 570
-892 62 -102 68 -139 30 -183 l-24 -28 -335 0 c-314 0 -336 1 -356 19 -11 10
-111 191 -222 402 -111 211 -203 384 -205 384 -5 0 -66 -121 -62 -125 2 -1 21
-12 43 -24 36 -19 37 -20 10 -15 -16 4 -38 11 -47 15 -17 9 -8 26 -254 -445
-87 -167 -102 -190 -132 -203 -27 -11 -92 -13 -333 -11 l-299 3 -27 27 c-54
54 -52 60 202 478 45 74 140 232 211 349 70 118 136 223 146 233 17 17 48 25
48 13z m1550 -20 c13 -14 21 -25 18 -25 -2 0 -15 11 -28 25 -13 14 -21 25 -18
25 2 0 15 -11 28 -25z m-330 -15 c8 -5 11 -10 5 -10 -5 -1 15 -9 45 -20 l55
-18 -40 -1 c-30 0 -48 7 -75 29 -33 28 -25 43 10 20z m-1390 -4 c0 -11 -19
-15 -25 -6 -3 5 1 10 9 10 9 0 16 -2 16 -4z m-40 -31 c-7 -8 -28 -15 -49 -15
l-36 1 30 14 c17 7 38 14 49 14 15 1 16 -2 6 -14z m-270 -29 c0 -2 -8 -10 -17
-17 -16 -13 -17 -12 -4 4 13 16 21 21 21 13z m198 -6 c-37 -5 -72 -11 -78 -15
-5 -3 -10 -4 -10 0 0 13 48 24 100 23 l55 -1 -67 -7z m1662 -6 l25 -15 -25 8
c-14 4 -51 8 -83 8 -31 0 -57 3 -57 8 0 13 114 7 140 -9z m-1679 -20 c-36 -8
-66 -16 -68 -18 -2 -2 27 -2 64 0 l68 3 -62 -9 c-35 -5 -67 -11 -72 -14 -5 -4
-8 2 -7 11 4 23 51 42 101 42 36 -1 34 -2 -24 -15z m1689 -4 c12 -6 19 -14 17
-17 -3 -2 -15 1 -27 7 -13 7 -44 13 -71 14 -27 0 -49 5 -49 10 0 12 102 1 130
-14z m-1381 -4 c26 17 26 17 9 -3 -21 -23 -23 -44 -5 -63 10 -12 9 -12 -5 -1
-21 16 -36 7 -49 -26 -5 -14 -12 -24 -15 -21 -2 3 0 17 5 31 8 19 6 28 -5 38
-14 11 -14 13 0 21 9 5 13 15 9 26 -6 16 -5 15 11 -1 17 -17 20 -17 45 -1z
m1386 -25 c20 -12 20 -12 0 -5 -11 4 -47 9 -80 12 -44 4 -53 7 -35 12 30 8 88
-2 115 -19z m-1670 -11 c-11 -5 -31 -9 -45 -10 -14 0 -36 -8 -50 -16 -17 -11
-19 -13 -5 -9 11 4 38 9 60 11 l40 4 -46 -15 c-45 -15 -102 -60 -69 -55 33 5
45 1 32 -12 -7 -7 -12 -19 -12 -27 1 -13 4 -12 15 3 8 11 15 15 15 10 0 -19
-45 -52 -75 -56 -27 -3 -30 0 -33 29 -2 23 5 40 27 66 17 19 28 36 26 39 -14
14 62 46 110 47 26 0 27 -2 10 -9z m1655 -6 c23 -9 40 -18 38 -19 -2 -2 -34 5
-73 15 -52 14 -62 18 -38 19 18 1 51 -6 73 -15z m-1680 -62 c0 -13 -12 -22
-22 -16 -10 6 -1 24 13 24 5 0 9 -4 9 -8z m1655 -14 c0 -9 9 -27 20 -40 11
-12 3 -7 -18 11 -40 38 -47 54 -19 49 9 -2 17 -11 17 -20z m-1780 -718 c-3 -5
-10 -10 -16 -10 -5 0 -9 5 -9 10 0 6 7 10 16 10 8 0 12 -4 9 -10z m-115 -28
c0 -13 -12 -22 -22 -16 -10 6 -1 24 13 24 5 0 9 -4 9 -8z"/>
<path d="M1810 2300 c-191 -24 -422 -83 -507 -130 -21 -12 -29 -18 -18 -14 11
4 56 20 100 36 258 95 636 132 930 93 134 -18 164 -18 70 1 -86 18 -470 26
-575 14z"/>
<path d="M2567 2241 c61 -17 151 -46 199 -65 49 -19 90 -34 92 -32 12 13 -279
111 -362 122 -23 2 9 -9 71 -25z"/>
<path d="M1965 2189 c-4 -6 -4 -26 -1 -45 7 -34 6 -34 -29 -34 -34 0 -35 1
-35 41 l0 40 -42 -3 -43 -3 2 -75 c1 -41 5 -94 8 -117 6 -38 9 -43 33 -44 27
-1 27 -1 -3 -8 -18 -4 -25 -9 -19 -14 7 -4 25 -4 41 -1 26 5 30 11 31 40 2 45
8 54 38 54 20 0 24 -5 24 -30 0 -28 2 -30 39 -30 22 0 43 5 46 11 4 6 4 60 0
120 l-7 109 -39 0 c-21 0 -41 -5 -44 -11z"/>
<path d="M2089 2096 c-1 -58 -2 -112 -3 -118 -1 -9 20 -15 59 -19 l60 -6 -57
-1 c-90 -3 -68 -20 30 -24 92 -4 118 0 86 13 -17 7 -17 8 -1 8 12 1 17 9 17
30 0 34 -14 48 -55 54 l-30 4 33 2 c24 1 32 6 32 20 0 10 6 24 14 30 17 14 31
80 19 91 -4 4 -52 11 -105 15 l-98 7 -1 -106z m134 27 c-7 -2 -21 -2 -30 0
-10 3 -4 5 12 5 17 0 24 -2 18 -5z"/>
<path d="M1614 2151 c-59 -27 -71 -61 -51 -148 8 -38 15 -69 14 -70 -1 0 -20
14 -41 33 l-39 34 18 47 c31 78 29 86 -19 79 -46 -8 -66 -21 -66 -46 0 -28
-11 -30 -39 -9 -26 19 -29 20 -69 4 -40 -16 -56 -35 -29 -35 9 0 9 -2 -1 -9
-10 -6 1 -17 37 -41 28 -17 51 -35 51 -39 0 -5 -7 -30 -15 -57 -8 -27 -15 -50
-15 -51 0 -2 8 -3 17 -3 15 0 14 -2 -3 -16 -18 -15 -18 -15 11 -9 35 7 77 33
72 43 -3 4 -2 15 2 25 6 17 8 17 34 -3 33 -26 96 -19 104 11 6 22 12 23 48 9
35 -13 113 5 142 32 15 14 23 33 23 54 0 28 -4 32 -32 37 -24 3 -39 -1 -55
-15 -30 -28 -56 -20 -64 20 -5 26 -3 35 13 43 15 8 24 7 38 -6 16 -15 20 -15
53 1 43 20 47 55 9 84 -32 25 -93 26 -148 1z m126 -71 c-8 -5 -19 -10 -25 -10
-5 0 -3 5 5 10 8 5 20 10 25 10 6 0 3 -5 -5 -10z m25 -140 c-3 -5 -12 -10 -18
-10 -7 0 -6 4 3 10 19 12 23 12 15 0z m-82 -27 c-7 -2 -19 -2 -25 0 -7 3 -2 5
12 5 14 0 19 -2 13 -5z m-106 -19 c-3 -3 -12 -4 -19 -1 -8 3 -5 6 6 6 11 1 17
-2 13 -5z m-44 -11 c-7 -2 -19 -2 -25 0 -7 3 -2 5 12 5 14 0 19 -2 13 -5z"/>
<path d="M2385 2130 c-14 -23 -42 -71 -62 -107 -29 -53 -33 -67 -22 -74 10 -6
10 -9 2 -9 -28 0 -11 -18 24 -25 29 -5 40 -3 49 10 7 10 20 15 31 12 10 -3 31
-8 47 -12 23 -5 26 -9 16 -15 -19 -12 -12 -17 33 -25 37 -7 37 -7 37 25 0 54
-31 224 -44 237 -6 6 -28 15 -48 18 -35 7 -38 5 -63 -35z m52 -102 c-3 -8 -6
-5 -6 6 -1 11 2 17 5 13 3 -3 4 -12 1 -19z m6 -75 c-7 -2 -19 -2 -25 0 -7 3
-2 5 12 5 14 0 19 -2 13 -5z m-80 -20 c-7 -2 -19 -2 -25 0 -7 3 -2 5 12 5 14
0 19 -2 13 -5z m164 -29 c-3 -3 -12 -4 -19 -1 -8 3 -5 6 6 6 11 1 17 -2 13 -5z"/>
<path d="M2566 2124 c-3 -9 -6 -29 -6 -45 0 -28 4 -32 47 -44 8 -3 8 -17 -2
-57 -21 -79 -17 -117 11 -124 38 -10 47 -1 70 72 l22 69 38 -3 c21 -2 40 -4
41 -5 1 -1 4 -23 7 -48 5 -42 4 -45 -17 -45 -19 1 -22 -3 -19 -34 2 -19 9 -41
15 -48 17 -21 82 -51 125 -58 35 -5 44 -3 66 19 22 22 25 32 21 77 -3 47 -1
51 16 47 10 -3 21 -1 24 3 3 5 -3 11 -12 13 -17 4 -17 5 0 6 42 3 -3 73 -67
102 -53 24 -111 24 -135 0 -18 -18 -18 -17 -17 17 l1 36 -85 27 c-127 40 -137
41 -144 23z m71 -250 c-3 -3 -12 -4 -19 -1 -8 3 -5 6 6 6 11 1 17 -2 13 -5z
m154 -51 c13 -16 12 -17 -3 -4 -17 13 -22 21 -14 21 2 0 10 -8 17 -17z m142
-50 c-7 -2 -21 -2 -30 0 -10 3 -4 5 12 5 17 0 24 -2 18 -5z"/>
<path d="M1165 2015 c-60 -21 -96 -67 -93 -116 3 -52 46 -130 80 -147 35 -17
95 -2 138 34 26 22 30 33 30 74 0 50 -27 127 -51 147 -24 20 -63 23 -104 8z
m44 -99 c7 -8 13 -27 14 -43 3 -37 -23 -37 -41 0 -21 44 0 76 27 43z m-55
-145 c-2 -3 -12 3 -22 13 -16 17 -16 18 5 5 12 -7 20 -15 17 -18z m49 -8 c-7
-2 -19 -2 -25 0 -7 3 -2 5 12 5 14 0 19 -2 13 -5z"/>
<path d="M983 1933 c1 -17 4 -19 14 -11 15 12 18 22 4 14 -5 -4 -11 0 -14 6
-3 7 -4 3 -4 -9z"/>
<path d="M1975 1940 c3 -5 22 -10 41 -10 19 0 34 5 34 10 0 6 -18 10 -41 10
-24 0 -38 -4 -34 -10z"/>
<path d="M2463 1803 c9 -2 25 -2 35 0 9 3 1 5 -18 5 -19 0 -27 -2 -17 -5z"/>
<path d="M2533 1793 c9 -2 23 -2 30 0 6 3 -1 5 -18 5 -16 0 -22 -2 -12 -5z"/>
<path d="M1009 1774 c-7 -9 -6 -12 6 -10 22 3 40 23 20 23 -8 0 -20 -6 -26
-13z"/>
<path d="M2600 1780 c34 -11 60 -11 35 0 -11 5 -29 8 -40 8 -16 0 -15 -2 5 -8z"/>
<path d="M2668 1763 c7 -3 16 -2 19 1 4 3 -2 6 -13 5 -11 0 -14 -3 -6 -6z"/>
<path d="M3020 1657 c0 -2 15 -16 33 -33 l32 -29 -29 33 c-28 30 -36 37 -36
29z"/>
<path d="M2940 1436 c0 -2 7 -6 15 -10 8 -3 15 -1 15 4 0 6 -7 10 -15 10 -8 0
-15 -2 -15 -4z"/>
<path d="M1860 1304 c0 -3 5 -15 11 -27 12 -22 12 -22 -9 -4 -20 18 -20 18
-26 0 -3 -10 -8 -52 -11 -93 l-6 -75 47 89 c43 84 45 91 28 103 -19 14 -34 17
-34 7z"/>
<path d="M1148 1443 c-10 -2 -18 -9 -18 -14 0 -6 8 -5 20 1 11 6 20 13 20 15
0 3 -1 4 -2 4 -2 -1 -11 -3 -20 -6z"/>
<path d="M1140 1390 c-23 -7 -23 -8 -3 -9 12 -1 25 4 28 9 3 6 5 10 3 9 -2 -1
-14 -5 -28 -9z"/>
</g>
</svg>
